<svg xmlns="http://www.w3.org/2000/svg" viewBox="0 0 100 125"><path fill-rule="evenodd" clip-rule="evenodd" d="M37.129 48.614c-5.702-1.706-11.507-3.31-17.817-4.409-1.312-4.272-2.162-8.583-2.645-13.584-.151-1.59-.508-3.665-.176-5.117.471-2.057 5.136-6.457 6.703-7.938 3.049-2.883 5.71-4.331 8.824-5.645 2.342-.99 7.928-.003 10.76.706 3.04.76 5.658 1.962 7.76 3.352.834 4.055 1.35 8.297 1.942 12.877.179 1.4.738 3.29.527 4.411-.262 1.405-2.74 2.75-4.057 3.881-4.174 3.582-8.377 7.609-11.821 11.466z"/><path d="M37.132 48.625l-.006-.001c-5.426-1.623-11.339-3.281-17.814-4.409-1.336-4.331-2.178-8.648-2.654-13.593-.029-.308-.067-.636-.105-.972-.159-1.396-.34-2.977-.072-4.148.471-2.045 5.139-6.461 6.672-7.911l.033-.031c3.046-2.881 5.731-4.34 8.826-5.648.658-.276 1.62-.417 2.856-.417 2.52 0 5.739.58 7.912 1.124 2.83.707 5.515 1.866 7.764 3.353.769 3.723 1.268 7.62 1.799 11.745l.146 1.139c.057.443.149.926.249 1.437.208 1.086.425 2.209.281 2.976-.191 1.025-1.573 2.03-2.79 2.916-.469.341-.91.664-1.271.971-4.44 3.812-8.527 7.777-11.82 11.467l-.006.002zm-2.264-37.112c-1.235 0-2.192.141-2.849.418-3.092 1.305-5.776 2.764-8.82 5.643l-.033.031c-1.533 1.45-6.2 5.862-6.667 7.903-.268 1.167-.086 2.747.073 4.14.038.337.075.664.105.972.476 4.945 1.317 9.261 2.646 13.583 6.468 1.121 12.379 2.777 17.804 4.4 3.292-3.689 7.38-7.652 11.818-11.462.36-.31.803-.633 1.271-.974 1.214-.885 2.591-1.886 2.784-2.902.143-.765-.073-1.886-.281-2.969-.098-.513-.192-.996-.249-1.438l-.146-1.139c-.53-4.125-1.03-8.022-1.796-11.738-2.242-1.478-4.925-2.636-7.752-3.344-2.173-.544-5.389-1.124-7.908-1.124z"/><path fill-rule="evenodd" clip-rule="evenodd" d="M82.822 26.74c4.388.904 7.845 2.742 11.114 4.762 1.155 2.908 2.214 6.13 3.176 9.528.937 3.304 2.188 7.222 1.765 10.936-.28 2.439-2.176 6.5-3.353 8.645-1.414 2.575-3.232 5.005-5.117 6.703a104.753 104.753 0 0 0-11.994-5.291c-.37-6.081-1.555-11.183-3.001-16.406-.395-1.424-1.498-3.804-1.411-4.94.114-1.492 3.371-5.367 4.232-6.704 1.85-2.851 3.142-5.037 4.589-7.233z"/><path d="M90.41 67.327l-.006-.003a105.404 105.404 0 0 0-11.994-5.291c-.39-6.289-1.677-11.605-3.008-16.415-.131-.468-.336-1.034-.552-1.635-.43-1.192-.917-2.542-.857-3.308.084-1.094 1.846-3.458 3.132-5.184.469-.626.872-1.167 1.102-1.525.884-1.365 1.631-2.56 2.351-3.713.762-1.221 1.482-2.375 2.236-3.518 4.501.921 8.007 2.832 11.129 4.759 1.101 2.766 2.169 5.971 3.179 9.533.076.264.15.531.229.803.903 3.148 1.927 6.718 1.533 10.137-.288 2.536-2.317 6.767-3.351 8.649-1.466 2.67-3.284 5.053-5.117 6.705l-.006.006zM82.819 26.75a218 218 0 0 0-2.224 3.513c-.723 1.155-1.469 2.35-2.354 3.716-.229.358-.633.899-1.1 1.525-1.285 1.723-3.05 4.084-3.131 5.174-.06.76.428 2.108.857 3.299.219.6.423 1.168.552 1.637 1.334 4.811 2.616 10.128 3.001 16.409a104.672 104.672 0 0 1 11.985 5.28c1.831-1.652 3.646-4.03 5.108-6.697 1.031-1.883 3.06-6.108 3.35-8.641.391-3.416-.633-6.982-1.533-10.129a89 89 0 0 1-.229-.804c-1.01-3.561-2.078-6.765-3.177-9.525-3.112-1.923-6.613-3.832-11.105-4.757z"/><path fill-rule="evenodd" clip-rule="evenodd" d="M53.362 34.325c7.509 1.254 13.784 3.739 19.933 6.352 1.38 4.638 3.049 9.602 3.882 15.17.263 1.762.824 4.271.53 5.821-.262 1.372-2.167 2.873-3.354 4.058-3.812 3.814-7.431 7.441-11.994 10.233-7.541-1.342-14.284-3.474-20.287-6.352-1.241-4.845-2.283-9.846-3.351-15.17-.312-1.545-1.228-3.61-1.061-4.94.146-1.145 2.182-3.064 3.354-4.235 3.938-3.937 8.529-7.603 12.348-10.937z"/><path d="M62.358 75.97h-.002c-7.426-1.323-14.253-3.46-20.29-6.352-1.31-5.097-2.418-10.506-3.357-15.181-.105-.526-.279-1.104-.463-1.715-.348-1.155-.706-2.351-.595-3.227.131-1.048 1.805-2.704 3.026-3.915l.329-.326c2.827-2.827 5.947-5.476 8.964-8.038a369.12 369.12 0 0 0 3.386-2.899c7.588 1.263 14.013 3.829 19.944 6.349.222.741.448 1.484.676 2.234 1.233 4.059 2.508 8.256 3.209 12.942.052.35.116.724.181 1.118.275 1.623.587 3.462.349 4.709-.208 1.096-1.46 2.27-2.563 3.306-.284.266-.55.517-.79.758l-.041.037c-3.809 3.814-7.406 7.412-11.956 10.195l-.007.005zm-8.999-41.636c-1.068.938-2.19 1.891-3.377 2.898-3.018 2.562-6.137 5.209-8.963 8.037-.103.104-.214.212-.327.327-1.152 1.139-2.891 2.861-3.021 3.902-.111.872.249 2.066.595 3.217.184.613.357 1.192.462 1.719.939 4.672 2.048 10.082 3.352 15.17 6.029 2.887 12.854 5.023 20.276 6.344 4.547-2.781 8.145-6.379 11.95-10.189l.041-.041c.241-.237.508-.489.789-.755 1.104-1.035 2.354-2.204 2.56-3.298.237-1.241-.073-3.078-.346-4.7-.067-.396-.131-.769-.184-1.115-.702-4.688-1.976-8.884-3.209-12.941-.228-.752-.455-1.495-.671-2.229-5.923-2.514-12.348-5.079-19.927-6.346z"/><path fill-rule="evenodd" clip-rule="evenodd" d="M41.539 70.138c6.246 2.754 12.822 5.172 20.642 6.351.763 2.019 1.154 4.164 1.766 6.525.507 1.956 1.886 4.652 1.588 6.53-.303 1.888-4.73 4.498-6.881 5.469-6.476 2.919-13.487 2.77-20.639.352-2.724-.919-7.225-2.718-8.645-4.235-1.248-1.331-2.064-4.14-2.648-6.174-.706-2.47-.979-4.827-1.233-7.584a123.16 123.16 0 0 0 16.05-7.234z"/><path d="M48.388 97.199c-3.301 0-6.792-.612-10.377-1.823-3.159-1.071-7.319-2.82-8.648-4.24-1.261-1.344-2.098-4.254-2.653-6.178-.729-2.55-.998-5.044-1.23-7.587a124.692 124.692 0 0 0 16.056-7.241c5.531 2.435 12.303 5.094 20.647 6.349.544 1.429.898 2.919 1.274 4.495.157.66.319 1.343.498 2.04.157.595.39 1.252.636 1.947.57 1.612 1.16 3.276.952 4.583-.306 1.915-4.855 4.56-6.887 5.478-3.208 1.446-6.663 2.177-10.268 2.177zm-6.852-27.051a123.343 123.343 0 0 1-16.044 7.23c.24 2.529.51 5.023 1.238 7.573.554 1.924 1.39 4.83 2.648 6.171 1.325 1.417 5.483 3.164 8.64 4.229 3.582 1.212 7.071 1.829 10.371 1.829 3.603 0 7.055-.735 10.261-2.18 2.025-.914 6.572-3.555 6.875-5.458.209-1.304-.381-2.968-.951-4.574-.246-.695-.482-1.355-.637-1.95a98.032 98.032 0 0 1-.5-2.04c-.373-1.578-.728-3.068-1.264-4.488-8.34-1.248-15.114-3.907-20.637-6.342z"/><path fill-rule="evenodd" clip-rule="evenodd" d="M68.887 3.806c.124 2.597.323 5.241-.176 7.584-6.715.521-12.814 1.656-17.643 4.058-4.647-2.881-10.585-4.467-17.994-4.586-.108-2.539-.095-5.198-.352-7.586 9.62-4.498 27.053-4.269 36.165.53z"/><path d="M51.066 15.459l-.003-.002c-4.721-2.927-10.772-4.469-17.989-4.585a88.62 88.62 0 0 1-.087-2.396c-.047-1.746-.096-3.551-.275-5.199C37.105 1.216 43.467.04 50.173.04c7.36 0 14.182 1.37 18.715 3.758.02.253.03.498.044.743.118 2.325.24 4.728-.214 6.853-7.672.602-13.276 1.891-17.647 4.063l-.005.002zM50.173.058c-6.704 0-13.062 1.177-17.447 3.227.184 1.638.232 3.444.281 5.191.021.786.043 1.597.076 2.386 7.21.107 13.264 1.648 17.985 4.575 4.371-2.173 9.976-3.462 17.643-4.056.442-2.114.318-4.516.202-6.839-.014-.245-.024-.491-.037-.736C64.35 1.427 57.53.058 50.173.058z"/><path fill-rule="evenodd" clip-rule="evenodd" d="M69.768 4.159c11.855 4.963 20.377 13.259 25.579 24.875-.481.518-.812 1.186-1.233 1.763-3.252-2.041-6.961-3.623-11.114-4.762-4.069-5.282-7.902-10.797-13.583-14.467.178-2.408.47-4.703.351-7.409z"/><path d="M94.116 30.81l-.009-.006c-3.216-2.019-6.955-3.62-11.111-4.76-.467-.601-.923-1.201-1.38-1.802-3.524-4.627-7.169-9.412-12.206-12.666.035-.531.079-1.047.122-1.563.157-1.836.319-3.734.225-5.854v-.014l.014.005c11.794 4.937 20.401 13.307 25.583 24.879-.299.333-.546.721-.784 1.096-.144.226-.291.459-.449.677l-.005.008zM69.776 4.174c.092 2.114-.068 4.009-.225 5.84-.044.517-.087 1.034-.128 1.556 5.037 3.246 8.684 8.032 12.208 12.661.457.601.915 1.201 1.374 1.799 4.149 1.134 7.888 2.736 11.104 4.754.156-.215.303-.446.443-.669.238-.376.486-.765.784-1.088-5.179-11.552-13.777-19.918-25.56-24.853z"/><path fill-rule="evenodd" clip-rule="evenodd" d="M15.784 25.504c.347 6.89 1.006 13.462 3 18.702-3.154 4.727-6.073 9.686-7.057 16.582-2.476.792-6.3.624-8.821 0-3.192-4.174-2.96-12.652-1.94-18.876 1.016-6.205 3.144-11.958 5.646-16.054 2.456-1.121 6.273-.991 9.172-.354z"/><path d="M7.612 61.33c-1.625 0-3.339-.194-4.707-.535C-.949 55.764.44 45.068.958 41.91c.967-5.916 3.024-11.768 5.646-16.058 1.208-.551 2.846-.843 4.742-.843 1.439 0 3.016.174 4.44.486.318 6.172.916 13.211 3.006 18.707-3.019 4.533-6.05 9.539-7.054 16.588-1.098.356-2.523.54-4.126.54zm3.734-36.3c-1.894 0-3.529.289-4.731.837C4.002 30.15 1.943 36.001.978 41.913.461 45.07-.928 55.755 2.914 60.782c1.36.333 3.076.527 4.698.527 1.603 0 3.024-.184 4.113-.53.998-7.043 4.03-12.053 7.052-16.579-2.094-5.49-2.691-12.531-3.003-18.696a21.83 21.83 0 0 0-4.428-.474z"/><path fill-rule="evenodd" clip-rule="evenodd" d="M99.582 53.201c.202-.027.314.041.352.177-.84 12.08-5.444 21.166-11.466 28.402-.752.903-1.413 2.451-2.821 2.47-.528-1.31.694-2.595 1.233-3.704 1.714-3.542 3.396-7.868 4.058-12.702 3.851-3.911 6.449-9.078 8.644-14.643z"/><path d="M85.638 84.259v-.006c-.4-.99.208-1.985.747-2.861.181-.299.352-.577.486-.851 2.17-4.482 3.499-8.638 4.058-12.697 4.239-4.312 6.847-10.09 8.646-14.645a.307.307 0 0 1 .092-.014c.148 0 .243.062.279.189-.75 10.744-4.502 20.035-11.472 28.41a9.556 9.556 0 0 0-.51.696c-.576.824-1.228 1.763-2.317 1.777h-.009zm14.028-31.055c-.024 0-.054.003-.084.006-1.791 4.55-4.398 10.333-8.637 14.64-.557 4.06-1.885 8.215-4.059 12.699-.132.272-.305.556-.485.853-.535.87-1.14 1.858-.749 2.84 1.078-.021 1.726-.952 2.296-1.771.173-.251.34-.489.511-.695 6.968-8.375 10.718-17.66 11.466-28.396-.034-.116-.118-.176-.259-.176z"/><path fill-rule="evenodd" clip-rule="evenodd" d="M11.551 61.492c3.284 6.536 7.742 11.896 13.408 16.055.05 5.537 2.087 10.027 3.528 13.582-2.25.502-4.904-.003-6.88-.352A50.837 50.837 0 0 1 6.612 74.016c-1.958-3.522-3.8-6.811-3.706-12.349 2.573.25 6.327.394 8.645-.175z"/><path d="M26.371 91.35c-1.58 0-3.215-.287-4.53-.52l-.235-.043c-6.134-4.345-11.322-10.141-15.003-16.765l-.029-.049c-1.939-3.495-3.773-6.792-3.676-12.306v-.011l.01.003a46.92 46.92 0 0 0 4.327.217c1.796 0 3.249-.131 4.314-.396 3.294 6.541 7.804 11.939 13.417 16.057.048 5.103 1.782 9.322 3.176 12.714l.356.874.003.01-.011.003a9.752 9.752 0 0 1-2.119.212zM2.917 61.679c-.095 5.503 1.736 8.797 3.675 12.284l.028.049c3.679 6.621 8.865 12.415 14.993 16.76l.231.037c1.314.232 2.948.522 4.527.522.772 0 1.479-.07 2.104-.208-.114-.281-.232-.568-.353-.86-1.393-3.396-3.126-7.616-3.172-12.716-5.61-4.109-10.122-9.514-13.408-16.049-1.056.265-2.508.4-4.307.4-1.702 0-3.284-.119-4.318-.219z"/><path fill-rule="evenodd" clip-rule="evenodd" d="M49.48 99.422c-.098-.257.206-.912-.176-.882 6.89-1.579 13.119-3.813 16.933-8.467 7.629-.314 13.904-1.977 18.173-5.648 2.143.734-1.012 2.638-2.294 3.706-7.655 6.368-19.451 12.33-32.636 11.291z"/><path d="M52.497 99.551c-1.006 0-2.021-.043-3.018-.118-.044-.103-.026-.254-.006-.403.021-.175.044-.354-.027-.435-.029-.036-.073-.043-.141-.043l-.003-.023c6.084-1.393 12.852-3.488 16.931-8.462 8.202-.339 14.145-2.184 18.172-5.646.449.146.692.356.735.623.114.709-1.19 1.697-2.235 2.486-.29.222-.564.427-.783.609-4.123 3.43-15.265 11.412-29.625 11.412zm-3.122-1.017a.148.148 0 0 1 .087.046c.075.091.052.274.029.452-.019.146-.037.292-.003.384.989.076 2.003.113 3.009.113 14.354 0 25.491-7.976 29.613-11.407.217-.181.492-.386.782-.607 1.041-.788 2.339-1.769 2.229-2.468-.043-.259-.283-.465-.714-.61-4.021 3.462-9.968 5.31-18.17 5.646-4.056 4.954-10.792 7.056-16.862 8.451z"/><path d="M50.111 99.666C22.569 99.666.163 77.26.163 49.717c0-27.542 22.406-49.95 49.948-49.95s49.948 22.408 49.948 49.95c0 27.543-22.406 49.949-49.948 49.949zm0-98.514c-26.777 0-48.563 21.786-48.563 48.565 0 26.777 21.786 48.563 48.563 48.563 26.779 0 48.562-21.786 48.562-48.563 0-26.779-21.783-48.565-48.562-48.565z"/></svg>