<svg xmlns="http://www.w3.org/2000/svg" width="100" height="100" viewBox="0 0 100 100"><path d="M-3.18-.14c-1.445-.433-2.916-.84-4.515-1.118a17.008 17.008 0 0 1-.67-3.443c-.039-.403-.13-.929-.045-1.297.119-.521 1.301-1.636 1.699-2.012.772-.73 1.447-1.098 2.236-1.43.594-.251 2.01-.001 2.727.178a6.38 6.38 0 0 1 1.967.85c.212 1.028.342 2.103.492 3.264.046.355.188.834.134 1.118-.066.356-.694.697-1.028.983A32.497 32.497 0 0 0-3.18-.14z" clip-rule="evenodd" fill-rule="evenodd"/><path d="M-3.179-.138h-.001c-1.375-.411-2.874-.831-4.515-1.117a16.887 16.887 0 0 1-.673-3.446c-.007-.078-.017-.16-.027-.246-.04-.354-.086-.755-.018-1.051.12-.519 1.303-1.638 1.691-2.005l.009-.008c.772-.73 1.452-1.1 2.237-1.432.166-.07.41-.106.723-.106.64 0 1.455.147 2.006.285.717.18 1.398.473 1.968.85.195.944.321 1.932.456 2.977l.037.289c.014.112.038.234.063.364.053.275.108.56.071.754-.048.26-.399.515-.707.74-.119.086-.23.168-.322.246A32.201 32.201 0 0 0-3.177-.138h-.002zm-.574-9.406c-.313 0-.555.036-.722.106-.783.33-1.464.7-2.235 1.43L-6.718-8c-.39.368-1.572 1.486-1.69 2.003-.068.296-.022.696.018 1.05.01.085.02.168.027.246.12 1.253.334 2.347.67 3.443 1.64.284 3.138.704 4.513 1.115.834-.935 1.87-1.94 2.995-2.905.092-.079.204-.16.323-.247.307-.224.656-.478.705-.736.036-.194-.018-.478-.071-.752-.025-.13-.049-.253-.063-.365l-.037-.288C.538-6.482.41-7.47.217-8.412a6.457 6.457 0 0 0-1.965-.847c-.55-.138-1.366-.285-2.005-.285z"/><path d="M8.402-5.685c1.112.23 1.988.695 2.817 1.207.293.738.561 1.554.805 2.415.237.838.554 1.83.447 2.772-.07.618-.551 1.648-.85 2.191-.358.653-.819 1.269-1.297 1.7a26.55 26.55 0 0 0-3.04-1.342C7.191 1.717 6.89.424 6.524-.9c-.1-.36-.38-.964-.358-1.252.03-.378.855-1.36 1.073-1.7.469-.722.796-1.276 1.163-1.833z" clip-rule="evenodd" fill-rule="evenodd"/><path d="M10.325 4.603l-.001-.001a26.716 26.716 0 0 0-3.04-1.341C7.184 1.667 6.859.319 6.52-.9c-.033-.12-.085-.263-.14-.415-.109-.302-.232-.644-.217-.839.021-.277.468-.876.794-1.313.119-.16.221-.296.28-.387.223-.346.413-.649.595-.941.193-.31.376-.602.567-.892 1.14.234 2.03.718 2.82 1.206.28.701.55 1.514.806 2.417l.059.203c.228.798.488 1.703.388 2.57-.073.642-.587 1.715-.85 2.192-.37.676-.832 1.28-1.296 1.7h-.002zM8.401-5.682c-.188.289-.37.581-.563.89-.184.293-.373.596-.597.942-.058.091-.16.228-.279.387-.326.437-.773 1.035-.794 1.311-.015.193.109.534.218.836.055.152.107.296.14.415.338 1.22.663 2.567.76 4.16a26.53 26.53 0 0 1 3.038 1.338c.464-.42.924-1.022 1.295-1.698.26-.477.775-1.548.849-2.19.099-.866-.16-1.77-.389-2.567-.02-.07-.04-.137-.058-.204a25.152 25.152 0 0 0-.805-2.414c-.789-.488-1.676-.972-2.815-1.206z"/><path d="M.935-3.762c1.903.318 3.494.948 5.052 1.61.35 1.176.773 2.434.984 3.845.067.447.209 1.082.135 1.475-.067.348-.55.729-.85 1.029-.967.967-1.884 1.886-3.04 2.594-1.912-.34-3.621-.881-5.143-1.61-.314-1.228-.578-2.496-.849-3.845C-2.855.944-3.087.42-3.045.083c.037-.29.553-.776.85-1.073.998-.998 2.162-1.927 3.13-2.772z" clip-rule="evenodd" fill-rule="evenodd"/><path d="M3.215 6.793c-1.883-.335-3.613-.877-5.143-1.61-.332-1.292-.613-2.662-.851-3.847A4.92 4.92 0 0 0-2.896.9c-.089-.293-.18-.596-.151-.818.033-.266.457-.685.767-.992a13.4 13.4 0 0 0 .083-.083C-1.48-1.708-.689-2.38.075-3.029c.3-.256.585-.497.858-.735 1.924.32 3.552.97 5.056 1.61l.17.565c.313 1.03.637 2.093.814 3.28.013.09.03.184.046.284.07.411.149.878.089 1.194-.053.277-.37.575-.65.838-.072.067-.14.13-.2.192l-.01.01c-.966.966-1.878 1.878-3.031 2.583l-.002.001zM.935-3.76c-.271.238-.556.48-.857.735-.765.65-1.555 1.32-2.271 2.037l-.083.083c-.292.288-.733.725-.766.989-.028.22.063.523.15.815.047.155.091.302.118.436.238 1.184.519 2.555.85 3.845 1.528.732 3.257 1.273 5.139 1.608 1.152-.705 2.064-1.617 3.028-2.583l.01-.01.2-.191c.28-.263.598-.56.65-.836.06-.315-.019-.78-.088-1.192l-.047-.282c-.178-1.189-.5-2.252-.813-3.28l-.17-.565C4.484-2.788 2.855-3.44.935-3.76z"/><path d="M-2.062 5.315c1.583.698 3.25 1.311 5.232 1.61.194.512.293 1.055.448 1.654.128.495.478 1.179.402 1.655-.076.478-1.198 1.14-1.744 1.386-1.641.74-3.418.702-5.23.09-.691-.234-1.832-.69-2.192-1.074-.316-.338-.523-1.05-.671-1.565-.18-.626-.248-1.224-.313-1.922a31.216 31.216 0 0 0 4.068-1.834z" clip-rule="evenodd" fill-rule="evenodd"/><path d="M-.326 12.174c-.836 0-1.721-.155-2.63-.462-.8-.271-1.855-.715-2.192-1.075-.32-.34-.532-1.078-.672-1.566-.185-.646-.253-1.278-.312-1.923a31.604 31.604 0 0 0 4.07-1.835c1.401.617 3.118 1.291 5.233 1.61.138.362.227.74.323 1.139.04.167.08.34.126.517.04.15.099.317.161.493.145.409.294.83.241 1.162-.077.485-1.23 1.156-1.745 1.388a6.29 6.29 0 0 1-2.603.552zm-1.736-6.856A31.263 31.263 0 0 1-6.13 7.15c.06.641.13 1.273.314 1.92.14.487.352 1.224.671 1.564.336.359 1.39.802 2.19 1.072.908.307 1.792.463 2.629.463.913 0 1.788-.186 2.6-.552.514-.232 1.666-.901 1.743-1.384.053-.33-.097-.752-.241-1.159a6.396 6.396 0 0 1-.162-.494c-.046-.177-.087-.35-.126-.517a9.203 9.203 0 0 0-.32-1.138c-2.115-.316-3.832-.99-5.231-1.607z"/><path clip-rule="evenodd" d="M4.87-11.497c.031.658.082 1.328-.045 1.922-1.702.132-3.247.42-4.471 1.028-1.178-.73-2.683-1.132-4.561-1.162-.028-.644-.024-1.317-.09-1.923 2.439-1.14 6.857-1.082 9.167.135z" fill-rule="evenodd"/><path d="M.353-8.544c-1.197-.742-2.731-1.133-4.56-1.162a20.83 20.83 0 0 1-.022-.608 16.72 16.72 0 0 0-.07-1.317c1.113-.523 2.726-.82 4.426-.82 1.865 0 3.594.346 4.743.952.005.064.008.126.011.188.03.59.061 1.198-.054 1.737-1.944.152-3.365.48-4.473 1.03H.353zm-.226-3.903c-1.7 0-3.311.298-4.422.818.046.415.058.872.07 1.315.006.2.012.405.02.605 1.828.027 3.362.418 4.559 1.16C1.46-9.1 2.882-9.427 4.825-9.577c.112-.536.081-1.145.052-1.734l-.01-.186c-1.147-.603-2.876-.95-4.74-.95z"/><path clip-rule="evenodd" d="M5.093-11.408c3.005 1.258 5.165 3.36 6.484 6.305-.122.131-.206.3-.313.447-.824-.518-1.764-.919-2.817-1.207C7.416-7.202 6.444-8.6 5.004-9.53c.045-.61.12-1.192.09-1.878z" fill-rule="evenodd"/><path d="M11.265-4.653l-.003-.001c-.815-.512-1.763-.918-2.816-1.207a50.3 50.3 0 0 1-.35-.457c-.893-1.172-1.817-2.385-3.093-3.21.008-.135.02-.265.03-.396.04-.466.081-.947.057-1.484v-.003h.004c2.99 1.252 5.17 3.374 6.484 6.307a2.076 2.076 0 0 0-.198.278c-.037.057-.074.116-.114.171l-.002.002zm-6.17-6.751c.024.536-.017 1.016-.057 1.48a60.6 60.6 0 0 0-.032.394c1.277.823 2.2 2.036 3.094 3.21l.348.456c1.052.287 2 .693 2.815 1.204.04-.054.077-.113.112-.17a1.91 1.91 0 0 1 .199-.275c-1.313-2.928-3.492-5.048-6.479-6.3z"/><path clip-rule="evenodd" d="M-8.59-5.998c.088 1.747.255 3.412.76 4.74-.799 1.199-1.538 2.455-1.788 4.203-.627.201-1.597.158-2.236 0-.809-1.058-.75-3.206-.491-4.784.257-1.573.797-3.03 1.43-4.07.623-.283 1.59-.25 2.325-.089z" fill-rule="evenodd"/><path d="M-10.66 3.083c-.413 0-.847-.05-1.194-.136-.977-1.275-.625-3.986-.493-4.787.245-1.499.766-2.982 1.43-4.07.307-.14.722-.213 1.203-.213.364 0 .764.044 1.125.123.08 1.564.232 3.348.762 4.741-.765 1.15-1.534 2.418-1.788 4.205-.278.09-.64.137-1.046.137zm.946-9.201c-.48 0-.895.073-1.2.212-.662 1.086-1.184 2.569-1.428 4.067-.131.8-.483 3.509.49 4.783.345.084.78.133 1.191.133.406 0 .767-.046 1.043-.134.253-1.785 1.021-3.055 1.787-4.202-.53-1.392-.682-3.176-.761-4.739a5.533 5.533 0 0 0-1.122-.12z"/><path clip-rule="evenodd" d="M12.65 1.022c.051-.007.08.01.09.045-.214 3.062-1.38 5.365-2.907 7.199-.19.229-.358.621-.715.626-.134-.332.176-.658.313-.939.434-.898.86-1.994 1.028-3.22.976-.99 1.635-2.3 2.191-3.71z" fill-rule="evenodd"/><path d="M9.116 8.894v-.001c-.102-.251.052-.503.189-.725.046-.076.09-.147.123-.216.55-1.136.887-2.19 1.029-3.218 1.074-1.093 1.735-2.558 2.191-3.712a.077.077 0 0 1 .024-.004c.037 0 .061.016.07.048-.19 2.723-1.14 5.078-2.907 7.201a2.424 2.424 0 0 0-.13.176c-.146.21-.311.447-.587.45h-.002zm3.555-7.87h-.021c-.454 1.154-1.115 2.62-2.19 3.711-.14 1.03-.477 2.082-1.028 3.219-.033.069-.077.14-.123.216-.136.22-.289.471-.19.72.273-.005.438-.241.582-.449a2.51 2.51 0 0 1 .13-.176c1.766-2.123 2.716-4.476 2.906-7.197-.009-.03-.03-.045-.066-.045z"/><path clip-rule="evenodd" d="M-9.662 3.124C-8.83 4.78-7.7 6.139-6.264 7.194c.013 1.402.529 2.54.894 3.442-.57.127-1.243-.001-1.744-.09a12.885 12.885 0 0 1-3.8-4.248c-.497-.893-.963-1.726-.94-3.13.653.063 1.604.1 2.192-.044z" fill-rule="evenodd"/><path d="M-5.906 10.692c-.4 0-.815-.073-1.148-.132l-.06-.011a12.933 12.933 0 0 1-3.803-4.25l-.007-.012c-.491-.886-.956-1.721-.932-3.119v-.003l.003.001c.261.025.664.055 1.097.055.455 0 .823-.033 1.093-.1.835 1.658 1.978 3.026 3.4 4.07.013 1.293.452 2.362.806 3.222l.09.222v.002h-.002c-.16.037-.34.055-.537.055zm-5.945-7.52c-.024 1.394.44 2.229.932 3.113l.007.012a12.94 12.94 0 0 0 3.8 4.248l.058.01c.333.058.748.132 1.148.132.196 0 .375-.018.533-.053a31.318 31.318 0 0 0-.09-.218c-.352-.86-.792-1.93-.803-3.223-1.422-1.041-2.566-2.411-3.399-4.068-.267.067-.635.102-1.091.102-.432 0-.833-.03-1.095-.056z"/><path clip-rule="evenodd" d="M-.049 12.738c-.025-.066.052-.232-.045-.224 1.747-.4 3.326-.966 4.292-2.146 1.934-.08 3.524-.501 4.606-1.432.544.186-.256.669-.581.94C6.283 11.49 3.293 13-.049 12.738z" fill-rule="evenodd"/><path d="M.716 12.77c-.255 0-.512-.01-.765-.03-.011-.026-.007-.064-.002-.102.006-.044.011-.09-.006-.11-.008-.01-.019-.011-.036-.011l-.001-.006c1.542-.353 3.257-.884 4.291-2.145 2.08-.086 3.586-.553 4.606-1.43.114.036.176.09.187.157.028.18-.302.43-.567.63-.073.057-.143.109-.198.155-1.045.87-3.87 2.892-7.51 2.892zm-.792-.258a.037.037 0 0 1 .023.012c.019.023.013.07.007.115a.237.237 0 0 0 0 .097c.25.02.507.029.762.029 3.638 0 6.46-2.022 7.506-2.892.055-.045.124-.097.198-.153.264-.2.593-.449.565-.626-.011-.066-.072-.118-.181-.155-1.02.878-2.527 1.346-4.606 1.431-1.028 1.256-2.735 1.789-4.273 2.142z"/><path d="M.111 12.8c-6.98 0-12.66-5.68-12.66-12.66 0-6.982 5.68-12.661 12.66-12.661s12.66 5.68 12.66 12.66C12.77 7.12 7.09 12.8.11 12.8zm0-24.97c-6.787 0-12.309 5.522-12.309 12.31 0 6.786 5.522 12.308 12.309 12.308C6.898 12.448 12.42 6.926 12.42.14c0-6.787-5.522-12.31-12.309-12.31z"/></svg>